<?xml version="1.0" encoding="UTF-8"?>
<svg role="img" aria-labelledby="svg_title" aria-label="svg_desc"  xmlns="http://www.w3.org/2000/svg" xmlns:xlink="http://www.w3.org/1999/xlink" width="231pt" height="55pt" viewBox="0 0 231 55" version="1.1">
<g id="surface1">
<path style=" stroke:none;fill-rule:evenodd;fill:rgb(100%,35.294118%,3.921569%);fill-opacity:1;" d="M 36.820312 32.144531 C 39.191406 28.714844 40.460938 24.628906 40.460938 20.441406 C 40.460938 17.234375 39.710938 14.066406 38.277344 11.203125 C 36.839844 8.339844 34.757812 5.859375 32.199219 3.960938 C 29.636719 2.0625 26.667969 0.800781 23.535156 0.273438 C 20.402344 -0.25 17.191406 -0.0195312 14.160156 0.941406 C 11.128906 1.90625 8.367188 3.574219 6.09375 5.820312 C 3.820312 8.0625 2.105469 10.8125 1.078125 13.851562 C 0.0546875 16.890625 -0.246094 20.128906 0.199219 23.308594 C 0.644531 26.484375 1.824219 29.511719 3.644531 32.144531 L 20.234375 55 L 31.742188 39.144531 L 26.5 31.921875 C 26.074219 32.160156 25.640625 32.371094 25.191406 32.558594 C 22.820312 33.550781 20.214844 33.808594 17.703125 33.304688 C 15.1875 32.800781 12.878906 31.550781 11.066406 29.71875 C 9.253906 27.886719 8.019531 25.554688 7.519531 23.015625 C 7.019531 20.472656 7.273438 17.839844 8.253906 15.449219 C 9.238281 13.054688 10.898438 11.007812 13.03125 9.570312 C 15.160156 8.128906 17.667969 7.363281 20.230469 7.363281 C 23.667969 7.363281 26.964844 8.742188 29.394531 11.199219 C 31.824219 13.65625 33.191406 16.984375 33.191406 20.460938 C 33.191406 23.050781 32.429688 25.582031 31.007812 27.734375 C 30.460938 28.5625 29.824219 29.320312 29.113281 29.996094 L 33.746094 36.378906 Z M 20.230469 10.632812 C 22.152344 10.632812 24.035156 11.207031 25.632812 12.289062 C 27.234375 13.367188 28.480469 14.902344 29.21875 16.695312 C 29.953125 18.492188 30.148438 20.46875 29.773438 22.375 C 29.398438 24.28125 28.472656 26.03125 27.113281 27.40625 C 25.75 28.78125 24.019531 29.714844 22.132812 30.097656 C 20.246094 30.476562 18.289062 30.28125 16.515625 29.539062 C 14.738281 28.792969 13.21875 27.535156 12.148438 25.917969 C 11.082031 24.300781 10.511719 22.402344 10.511719 20.460938 C 10.511719 17.855469 11.535156 15.359375 13.359375 13.515625 C 15.179688 11.671875 17.652344 10.636719 20.230469 10.632812 Z M 22.785156 16.828125 C 22.785156 18.253906 21.640625 19.410156 20.230469 19.410156 C 18.820312 19.410156 17.675781 18.253906 17.675781 16.828125 C 17.675781 15.402344 18.820312 14.25 20.230469 14.25 C 21.640625 14.25 22.785156 15.402344 22.785156 16.828125 Z M 15.386719 25.558594 C 15.367188 24.90625 15.480469 24.253906 15.714844 23.644531 C 15.949219 23.03125 16.304688 22.476562 16.753906 22.007812 C 17.207031 21.535156 17.746094 21.164062 18.34375 20.90625 C 18.941406 20.652344 19.585938 20.523438 20.230469 20.523438 C 20.878906 20.523438 21.523438 20.652344 22.121094 20.90625 C 22.714844 21.164062 23.257812 21.535156 23.707031 22.007812 C 24.160156 22.476562 24.515625 23.03125 24.75 23.644531 C 24.984375 24.253906 25.097656 24.90625 25.078125 25.558594 Z M 15.386719 25.558594 "/>
<path style=" stroke:none;fill-rule:evenodd;fill:rgb(100%,100%,100%);fill-opacity:1;" d="M 25.632812 12.289062 C 24.035156 11.207031 22.152344 10.632812 20.230469 10.632812 C 17.652344 10.636719 15.183594 11.671875 13.359375 13.515625 C 11.539062 15.359375 10.511719 17.855469 10.511719 20.460938 C 10.511719 22.402344 11.082031 24.304688 12.148438 25.917969 C 13.21875 27.535156 14.738281 28.792969 16.515625 29.539062 C 18.292969 30.28125 20.246094 30.476562 22.132812 30.097656 C 24.019531 29.714844 25.753906 28.78125 27.113281 27.40625 C 28.472656 26.03125 29.398438 24.28125 29.773438 22.375 C 30.148438 20.46875 29.953125 18.492188 29.21875 16.695312 C 28.480469 14.902344 27.234375 13.367188 25.632812 12.289062 Z M 13.03125 9.570312 C 15.160156 8.128906 17.667969 7.363281 20.230469 7.363281 C 23.667969 7.363281 26.964844 8.742188 29.394531 11.199219 C 31.828125 13.65625 33.191406 16.984375 33.191406 20.460938 C 33.191406 23.050781 32.433594 25.582031 31.007812 27.734375 C 30.460938 28.5625 29.824219 29.320312 29.113281 29.996094 L 33.746094 36.382812 L 31.742188 39.148438 L 26.5 31.921875 C 26.078125 32.160156 25.640625 32.371094 25.191406 32.558594 C 22.824219 33.550781 20.214844 33.808594 17.703125 33.304688 C 15.1875 32.800781 12.878906 31.550781 11.066406 29.71875 C 9.253906 27.886719 8.019531 25.554688 7.519531 23.015625 C 7.019531 20.472656 7.273438 17.839844 8.257812 15.449219 C 9.238281 13.054688 10.898438 11.007812 13.03125 9.570312 Z M 20.230469 19.410156 C 21.640625 19.410156 22.785156 18.253906 22.785156 16.828125 C 22.785156 15.402344 21.640625 14.25 20.230469 14.25 C 18.820312 14.25 17.679688 15.402344 17.679688 16.828125 C 17.679688 18.253906 18.820312 19.410156 20.230469 19.410156 Z M 15.714844 23.644531 C 15.480469 24.253906 15.367188 24.90625 15.386719 25.558594 L 25.078125 25.558594 C 25.097656 24.90625 24.984375 24.253906 24.75 23.644531 C 24.515625 23.03125 24.160156 22.476562 23.710938 22.007812 C 23.257812 21.535156 22.71875 21.164062 22.121094 20.90625 C 21.523438 20.652344 20.882812 20.523438 20.234375 20.523438 C 19.585938 20.523438 18.941406 20.652344 18.34375 20.90625 C 17.75 21.164062 17.207031 21.535156 16.757812 22.007812 C 16.304688 22.476562 15.949219 23.03125 15.714844 23.644531 Z M 15.714844 23.644531 "/>
<path style=" stroke:none;fill-rule:nonzero;fill:rgb(39.215686%,51.372549%,56.862745%);fill-opacity:1;" d="M 71.28125 23.707031 L 71.28125 11.867188 L 71.234375 11.867188 L 66.335938 23.707031 L 63.933594 23.707031 L 59.054688 11.9375 L 59.03125 11.9375 L 59.03125 23.707031 L 55.511719 23.707031 L 55.511719 6.339844 L 60.363281 6.339844 L 65.144531 17.894531 L 69.832031 6.339844 L 74.800781 6.339844 L 74.800781 23.707031 Z M 82.898438 29.542969 L 79.214844 29.542969 L 82.089844 22.445312 L 77.121094 11.867188 L 80.925781 11.867188 L 83.875 18.632812 L 86.515625 11.867188 L 90.082031 11.867188 Z M 105.824219 23.945312 C 103.414062 23.945312 101.335938 23.136719 99.589844 21.515625 C 98.796875 20.769531 98.148438 19.824219 97.640625 18.679688 C 97.148438 17.519531 96.902344 16.304688 96.902344 15.035156 C 96.902344 13.8125 97.148438 12.613281 97.640625 11.4375 C 98.148438 10.339844 98.804688 9.394531 99.617188 8.601562 C 100.410156 7.824219 101.367188 7.203125 102.492188 6.742188 C 103.636719 6.296875 104.777344 6.074219 105.917969 6.074219 C 107.789062 6.074219 109.382812 6.511719 110.699219 7.386719 C 111.269531 7.71875 111.792969 8.15625 112.269531 8.695312 C 113.125 9.632812 113.695312 10.632812 113.980469 11.699219 L 110.582031 12.867188 C 110.5 12.5 110.304688 12.089844 109.984375 11.628906 C 109.667969 11.167969 109.257812 10.761719 108.75 10.414062 C 107.941406 9.855469 106.980469 9.578125 105.871094 9.578125 C 104.871094 9.578125 103.976562 9.824219 103.183594 10.316406 C 102.359375 10.792969 101.730469 11.445312 101.304688 12.269531 C 100.84375 13.113281 100.613281 14.027344 100.613281 15.011719 C 100.613281 15.996094 100.835938 16.910156 101.28125 17.75 C 101.722656 18.578125 102.351562 19.234375 103.160156 19.726562 C 103.984375 20.234375 104.886719 20.492188 105.871094 20.492188 C 106.996094 20.492188 107.957031 20.203125 108.75 19.632812 C 109.066406 19.410156 109.375 19.132812 109.675781 18.800781 C 110.167969 18.226562 110.492188 17.632812 110.652344 17.011719 L 114.078125 18.203125 C 113.839844 19.21875 113.292969 20.195312 112.4375 21.132812 C 111.960938 21.65625 111.421875 22.125 110.820312 22.539062 C 110.246094 22.9375 109.511719 23.277344 108.605469 23.5625 C 107.75 23.816406 106.824219 23.945312 105.824219 23.945312 Z M 115.507812 17.820312 C 115.507812 16.695312 115.800781 15.636719 116.386719 14.652344 C 116.957031 13.683594 117.742188 12.929688 118.742188 12.390625 C 119.773438 11.851562 120.859375 11.578125 122 11.578125 C 123.191406 11.578125 124.269531 11.851562 125.238281 12.390625 C 126.21875 12.914062 126.996094 13.652344 127.566406 14.605469 C 128.136719 15.527344 128.421875 16.574219 128.421875 17.75 C 128.421875 18.910156 128.136719 19.964844 127.566406 20.917969 C 126.980469 21.886719 126.195312 22.632812 125.210938 23.160156 C 124.230469 23.699219 123.144531 23.96875 121.953125 23.96875 C 120.78125 23.96875 119.695312 23.707031 118.695312 23.183594 C 117.710938 22.625 116.941406 21.886719 116.386719 20.96875 C 115.800781 19.980469 115.507812 18.933594 115.507812 17.820312 Z M 119.882812 15.605469 C 119.328125 16.195312 119.050781 16.917969 119.050781 17.773438 C 119.050781 18.632812 119.328125 19.355469 119.882812 19.941406 C 120.457031 20.515625 121.152344 20.800781 121.976562 20.800781 C 122.785156 20.800781 123.476562 20.515625 124.046875 19.941406 C 124.601562 19.402344 124.878906 18.679688 124.878906 17.773438 C 124.878906 16.886719 124.601562 16.164062 124.046875 15.605469 C 123.476562 15.035156 122.777344 14.75 121.953125 14.75 C 121.144531 14.75 120.457031 15.035156 119.882812 15.605469 Z M 143.914062 14.84375 C 143.25 14.84375 142.726562 15.050781 142.34375 15.464844 C 141.980469 15.859375 141.796875 16.402344 141.796875 17.082031 L 141.796875 23.707031 L 138.371094 23.707031 L 138.371094 17.132812 C 138.371094 15.605469 137.730469 14.84375 136.445312 14.84375 C 135.761719 14.84375 135.238281 15.050781 134.875 15.464844 C 134.511719 15.859375 134.328125 16.417969 134.328125 17.132812 L 134.328125 23.707031 L 130.878906 23.707031 L 130.878906 11.867188 L 134.28125 11.867188 L 134.28125 13.414062 L 134.304688 13.414062 C 134.652344 12.828125 135.136719 12.382812 135.753906 12.082031 C 136.421875 11.761719 137.085938 11.605469 137.753906 11.605469 C 139.402344 11.605469 140.550781 12.230469 141.203125 13.484375 C 141.789062 12.820312 142.382812 12.34375 142.988281 12.054688 C 143.605469 11.753906 144.328125 11.605469 145.152344 11.605469 C 146.546875 11.605469 147.585938 12.03125 148.265625 12.890625 C 148.949219 13.746094 149.289062 14.890625 149.289062 16.320312 L 149.289062 23.707031 L 145.839844 23.707031 L 145.839844 17.082031 C 145.839844 15.589844 145.199219 14.84375 143.914062 14.84375 Z M 165.425781 14.84375 C 164.757812 14.84375 164.234375 15.050781 163.855469 15.464844 C 163.488281 15.859375 163.308594 16.402344 163.308594 17.082031 L 163.308594 23.707031 L 159.882812 23.707031 L 159.882812 17.132812 C 159.882812 15.605469 159.238281 14.84375 157.957031 14.84375 C 157.273438 14.84375 156.75 15.050781 156.386719 15.464844 C 156.019531 15.859375 155.839844 16.417969 155.839844 17.132812 L 155.839844 23.707031 L 152.390625 23.707031 L 152.390625 11.867188 L 155.789062 11.867188 L 155.789062 13.414062 L 155.8125 13.414062 C 156.164062 12.828125 156.648438 12.382812 157.265625 12.082031 C 157.929688 11.761719 158.597656 11.605469 159.261719 11.605469 C 160.914062 11.605469 162.0625 12.230469 162.710938 13.484375 C 163.300781 12.820312 163.894531 12.34375 164.496094 12.054688 C 165.113281 11.753906 165.835938 11.605469 166.660156 11.605469 C 168.054688 11.605469 169.09375 12.03125 169.777344 12.890625 C 170.460938 13.746094 170.800781 14.890625 170.800781 16.320312 L 170.800781 23.707031 L 167.351562 23.707031 L 167.351562 17.082031 C 167.351562 15.589844 166.707031 14.84375 165.425781 14.84375 Z M 173.78125 11.867188 L 177.230469 11.867188 L 177.230469 18.464844 C 177.230469 19.179688 177.402344 19.734375 177.753906 20.132812 C 178.101562 20.53125 178.617188 20.730469 179.296875 20.730469 C 179.996094 20.730469 180.519531 20.515625 180.867188 20.085938 C 181.234375 19.640625 181.414062 19.101562 181.414062 18.464844 L 181.414062 11.867188 L 184.863281 11.867188 L 184.863281 23.707031 L 181.464844 23.707031 L 181.464844 22.230469 L 181.414062 22.230469 C 180.640625 23.375 179.542969 23.945312 178.132812 23.945312 C 176.691406 23.945312 175.597656 23.46875 174.851562 22.515625 C 174.136719 21.625 173.78125 20.554688 173.78125 19.300781 Z M 199.128906 23.707031 L 195.679688 23.707031 L 195.679688 17.132812 C 195.679688 16.417969 195.507812 15.859375 195.15625 15.464844 C 194.808594 15.050781 194.292969 14.84375 193.613281 14.84375 C 192.929688 14.84375 192.40625 15.058594 192.042969 15.488281 C 191.675781 15.949219 191.496094 16.496094 191.496094 17.132812 L 191.496094 23.707031 L 188.046875 23.707031 L 188.046875 11.867188 L 191.46875 11.867188 L 191.46875 13.414062 L 191.496094 13.414062 C 191.921875 12.667969 192.542969 12.167969 193.351562 11.914062 C 193.984375 11.722656 194.484375 11.628906 194.847656 11.628906 C 196.257812 11.628906 197.324219 12.082031 198.035156 12.984375 C 198.765625 13.890625 199.128906 15.011719 199.128906 16.34375 Z M 202.40625 9.246094 C 201.992188 8.832031 201.789062 8.332031 201.789062 7.742188 C 201.789062 7.125 201.992188 6.609375 202.40625 6.195312 C 202.851562 5.78125 203.347656 5.574219 203.90625 5.574219 C 204.492188 5.574219 205.007812 5.78125 205.449219 6.195312 C 205.863281 6.640625 206.070312 7.15625 206.070312 7.742188 C 206.070312 8.300781 205.863281 8.800781 205.449219 9.246094 C 205.023438 9.671875 204.507812 9.886719 203.90625 9.886719 C 203.332031 9.886719 202.835938 9.671875 202.40625 9.246094 Z M 202.191406 11.867188 L 205.664062 11.867188 L 205.664062 23.707031 L 202.191406 23.707031 Z M 216.398438 14.867188 L 213.472656 14.867188 L 213.472656 19.347656 C 213.472656 20.363281 214.035156 20.871094 215.160156 20.871094 C 215.480469 20.871094 215.882812 20.839844 216.375 20.777344 L 216.375 23.585938 C 215.804688 23.777344 215.113281 23.875 214.304688 23.875 C 211.449219 23.875 210.023438 22.429688 210.023438 19.539062 L 210.023438 14.867188 L 207.742188 14.867188 L 207.742188 11.867188 L 210.09375 11.867188 L 210.09375 8.148438 L 213.472656 8.148438 L 213.472656 11.867188 L 216.398438 11.867188 Z M 223.457031 29.542969 L 219.769531 29.542969 L 222.648438 22.445312 L 217.679688 11.867188 L 221.484375 11.867188 L 224.433594 18.632812 L 227.074219 11.867188 L 230.640625 11.867188 Z M 70.617188 39.640625 C 70.617188 42.261719 69.742188 44.359375 68 45.933594 C 66.207031 47.550781 63.789062 48.363281 60.746094 48.363281 L 55.511719 48.363281 L 55.511719 30.992188 L 60.816406 30.992188 C 63.84375 30.992188 66.238281 31.753906 68 33.28125 C 69.742188 34.804688 70.617188 36.925781 70.617188 39.640625 Z M 66.929688 39.640625 C 66.929688 37.972656 66.367188 36.679688 65.242188 35.757812 C 64.113281 34.835938 62.671875 34.375 60.910156 34.375 L 59.078125 34.375 L 59.078125 44.953125 L 60.863281 44.953125 C 62.71875 44.953125 64.1875 44.496094 65.265625 43.574219 C 66.375 42.652344 66.929688 41.339844 66.929688 39.640625 Z M 73.394531 33.898438 C 72.980469 33.488281 72.773438 32.988281 72.773438 32.398438 C 72.773438 31.78125 72.980469 31.261719 73.394531 30.851562 C 73.835938 30.4375 74.335938 30.230469 74.890625 30.230469 C 75.476562 30.230469 75.992188 30.4375 76.4375 30.851562 C 76.851562 31.296875 77.054688 31.8125 77.054688 32.398438 C 77.054688 32.953125 76.851562 33.457031 76.4375 33.898438 C 76.007812 34.328125 75.492188 34.542969 74.890625 34.542969 C 74.320312 34.542969 73.820312 34.328125 73.394531 33.898438 Z M 73.179688 36.519531 L 76.652344 36.519531 L 76.652344 48.363281 L 73.179688 48.363281 Z M 87.148438 36.519531 L 87.148438 39.902344 C 86.734375 39.839844 86.371094 39.808594 86.054688 39.808594 C 85.183594 39.808594 84.492188 40.101562 83.984375 40.691406 C 83.492188 41.277344 83.246094 42.105469 83.246094 43.167969 L 83.246094 48.363281 L 79.84375 48.363281 L 79.84375 36.519531 L 83.128906 36.519531 L 83.128906 38.234375 L 83.152344 38.234375 C 83.738281 37.011719 84.761719 36.402344 86.21875 36.402344 C 86.488281 36.402344 86.800781 36.441406 87.148438 36.519531 Z M 91.503906 41.09375 L 96.59375 41.09375 C 96.546875 40.617188 96.339844 40.175781 95.976562 39.761719 C 95.546875 39.285156 94.914062 39.046875 94.074219 39.046875 C 93.359375 39.046875 92.773438 39.269531 92.3125 39.714844 C 91.835938 40.175781 91.566406 40.632812 91.503906 41.09375 Z M 99.996094 43.40625 L 91.433594 43.40625 C 91.527344 44.089844 91.851562 44.652344 92.40625 45.097656 C 92.945312 45.527344 93.589844 45.742188 94.335938 45.742188 C 94.828125 45.742188 95.324219 45.589844 95.832031 45.289062 C 96.339844 44.988281 96.671875 44.605469 96.832031 44.144531 L 99.6875 45.121094 C 99.304688 46.21875 98.625 47.074219 97.640625 47.695312 C 96.65625 48.316406 95.570312 48.625 94.382812 48.625 C 93.207031 48.625 92.121094 48.363281 91.125 47.835938 C 90.15625 47.34375 89.371094 46.613281 88.769531 45.644531 C 88.183594 44.660156 87.886719 43.589844 87.886719 42.429688 C 87.886719 41.300781 88.175781 40.261719 88.746094 39.308594 C 89.300781 38.371094 90.070312 37.617188 91.050781 37.046875 C 91.988281 36.503906 93.027344 36.234375 94.167969 36.234375 C 95.914062 36.234375 97.332031 36.78125 98.425781 37.878906 C 99.519531 38.976562 100.066406 40.40625 100.066406 42.167969 C 100.066406 42.707031 100.042969 43.121094 99.996094 43.40625 Z M 108.179688 48.625 C 106.355469 48.640625 104.824219 48.050781 103.585938 46.859375 C 102.367188 45.667969 101.773438 44.199219 101.804688 42.453125 C 101.804688 41.308594 102.089844 40.261719 102.660156 39.308594 C 103.183594 38.386719 103.953125 37.632812 104.964844 37.046875 C 105.996094 36.503906 107.089844 36.234375 108.25 36.234375 C 109.550781 36.234375 110.738281 36.578125 111.816406 37.257812 C 112.960938 37.941406 113.6875 38.949219 114.003906 40.285156 L 110.84375 41.238281 C 110.699219 40.746094 110.398438 40.316406 109.9375 39.953125 C 109.476562 39.601562 108.890625 39.425781 108.179688 39.425781 C 107.386719 39.425781 106.71875 39.699219 106.179688 40.238281 C 105.625 40.792969 105.347656 41.515625 105.347656 42.40625 C 105.347656 43.3125 105.617188 44.035156 106.15625 44.574219 C 106.679688 45.144531 107.363281 45.429688 108.203125 45.429688 C 108.867188 45.429688 109.4375 45.265625 109.914062 44.929688 C 110.390625 44.582031 110.722656 44.136719 110.914062 43.597656 L 114.078125 44.550781 C 113.839844 45.40625 113.410156 46.164062 112.792969 46.8125 C 112.140625 47.449219 111.4375 47.902344 110.675781 48.171875 C 109.882812 48.472656 109.050781 48.625 108.179688 48.625 Z M 123.878906 39.523438 L 120.953125 39.523438 L 120.953125 44.003906 C 120.953125 45.019531 121.515625 45.527344 122.640625 45.527344 C 122.957031 45.527344 123.363281 45.496094 123.855469 45.429688 L 123.855469 48.242188 C 123.285156 48.433594 122.59375 48.527344 121.785156 48.527344 C 118.929688 48.527344 117.503906 47.082031 117.503906 44.191406 L 117.503906 39.523438 L 115.21875 39.523438 L 115.21875 36.519531 L 117.574219 36.519531 L 117.574219 32.804688 L 120.953125 32.804688 L 120.953125 36.519531 L 123.878906 36.519531 Z M 125.378906 42.476562 C 125.378906 41.347656 125.671875 40.292969 126.261719 39.308594 C 126.832031 38.339844 127.617188 37.585938 128.613281 37.046875 C 129.644531 36.503906 130.730469 36.234375 131.875 36.234375 C 133.0625 36.234375 134.140625 36.503906 135.109375 37.046875 C 136.089844 37.570312 136.867188 38.308594 137.441406 39.261719 C 138.011719 40.183594 138.296875 41.230469 138.296875 42.40625 C 138.296875 43.566406 138.011719 44.621094 137.441406 45.574219 C 136.851562 46.542969 136.066406 47.289062 135.085938 47.8125 C 134.101562 48.355469 133.015625 48.625 131.828125 48.625 C 130.652344 48.625 129.566406 48.363281 128.566406 47.835938 C 127.582031 47.28125 126.816406 46.542969 126.261719 45.621094 C 125.671875 44.636719 125.378906 43.589844 125.378906 42.476562 Z M 129.757812 40.261719 C 129.203125 40.847656 128.925781 41.570312 128.925781 42.429688 C 128.925781 43.289062 129.203125 44.011719 129.757812 44.597656 C 130.328125 45.167969 131.023438 45.457031 131.851562 45.457031 C 132.660156 45.457031 133.347656 45.167969 133.917969 44.597656 C 134.472656 44.058594 134.75 43.335938 134.75 42.429688 C 134.75 41.539062 134.472656 40.816406 133.917969 40.261719 C 133.347656 39.691406 132.652344 39.402344 131.828125 39.402344 C 131.015625 39.402344 130.328125 39.691406 129.757812 40.261719 Z M 148.054688 36.519531 L 148.054688 39.902344 C 147.640625 39.839844 147.277344 39.808594 146.960938 39.808594 C 146.085938 39.808594 145.398438 40.101562 144.890625 40.691406 C 144.398438 41.277344 144.152344 42.105469 144.152344 43.167969 L 144.152344 48.363281 L 140.75 48.363281 L 140.75 36.519531 L 144.035156 36.519531 L 144.035156 38.234375 L 144.058594 38.234375 C 144.644531 37.011719 145.667969 36.402344 147.125 36.402344 C 147.394531 36.402344 147.707031 36.441406 148.054688 36.519531 Z M 154.585938 54.199219 L 150.898438 54.199219 L 153.777344 47.097656 L 148.804688 36.519531 L 152.609375 36.519531 L 155.558594 43.289062 L 158.199219 36.519531 L 161.769531 36.519531 Z M 154.585938 54.199219 "/>
</g>
	<title>
		Directory Logo
	</title>
	<desc>
		Directory Logo
	</desc>
</svg>
