<svg role="img" aria-labelledby="svg_title"
aria-label="svg_desc" width="34" height="41" fill="none" xmlns="http://www.w3.org/2000/svg"><g filter="url(#filter0_d)"><path d="M27.83 17.213c.45.184.668.515.654.994-.01.49-.234.823-.674.999l-5.99 2.404 6.148 6.199c.209.22.312.476.308.768a1.093 1.093 0 01-.313.763l-2.304 2.29c-.219.21-.475.312-.768.309a1.094 1.094 0 01-.763-.313l-5.84-5.887-2.928 6.857a1.04 1.04 0 01-.994.653c-.49-.01-.823-.234-.999-.673L3.903 8.99c-.176-.439-.091-.831.256-1.177a1.07 1.07 0 01.345-.23c.282-.113.557-.108.825.015l22.501 9.614z" fill="#fff"/><path d="M27.712 17.49h0l.004.003a.754.754 0 01.363.272.726.726 0 01.104.433v.003a.822.822 0 01-.125.454.752.752 0 01-.36.27l-5.99 2.405-.422.17.32.322 6.145 6.197a.755.755 0 01.223.555.792.792 0 01-.227.556l-2.298 2.284a.755.755 0 01-.554.223.792.792 0 01-.556-.227l-5.836-5.883-.316-.318-.175.412-2.93 6.856a.738.738 0 01-.711.47.82.82 0 01-.454-.124.75.75 0 01-.27-.36L4.183 8.88a.752.752 0 01-.054-.447.821.821 0 01.242-.404.746.746 0 01.245-.163.703.703 0 01.587.008h0l.007.004 22.502 9.614z" stroke="#648391" stroke-width=".603"/></g><defs><filter id="filter0_d" x=".5" y=".732" width="33.358" height="39.357" filterUnits="userSpaceOnUse" color-interpolation-filters="sRGB"><feFlood flood-opacity="0" result="BackgroundImageFix"/><feColorMatrix in="SourceAlpha" values="0 0 0 0 0 0 0 0 0 0 0 0 0 0 0 0 0 0 127 0" result="hardAlpha"/><feOffset dx="-1" dy="2"/><feGaussianBlur stdDeviation="1"/><feColorMatrix values="0 0 0 0 0.380392 0 0 0 0 0.380392 0 0 0 0 0.380392 0 0 0 0.3 0"/><title>Mouse icon</title><desc>Mouse icon</desc><feBlend in2="BackgroundImageFix" result="effect1_dropShadow"/><feBlend in="SourceGraphic" in2="effect1_dropShadow" result="shape"/></filter></defs></svg>